<?xml version="1.0" encoding="UTF-8" standalone="no"?>
<!-- Created with Inkscape (http://www.inkscape.org/) -->

<svg
   xmlns:dc="http://purl.org/dc/elements/1.1/"
   xmlns:cc="http://creativecommons.org/ns#"
   xmlns:rdf="http://www.w3.org/1999/02/22-rdf-syntax-ns#"
   xmlns:svg="http://www.w3.org/2000/svg"
   xmlns="http://www.w3.org/2000/svg"
   xmlns:sodipodi="http://sodipodi.sourceforge.net/DTD/sodipodi-0.dtd"
   xmlns:inkscape="http://www.inkscape.org/namespaces/inkscape"
   width="14.315692mm"
   height="7.4603653mm"
   viewBox="0 0 14.315692 7.4603653"
   version="1.1"
   id="svg990"
   inkscape:version="0.92.5 (2060ec1f9f, 2020-04-08)"
   sodipodi:docname="lime_slice.svg">
  <defs
     id="defs984" />
  <sodipodi:namedview
     id="base"
     pagecolor="#ffffff"
     bordercolor="#666666"
     borderopacity="1.0"
     inkscape:pageopacity="0.0"
     inkscape:pageshadow="2"
     inkscape:zoom="11.2"
     inkscape:cx="26.108761"
     inkscape:cy="26.787759"
     inkscape:document-units="mm"
     inkscape:current-layer="layer1"
     showgrid="false"
     fit-margin-top="0"
     fit-margin-left="0"
     fit-margin-right="0"
     fit-margin-bottom="0"
     inkscape:window-width="1920"
     inkscape:window-height="1016"
     inkscape:window-x="0"
     inkscape:window-y="27"
     inkscape:window-maximized="1" />
  <metadata
     id="metadata987">
    <rdf:RDF>
      <cc:Work
         rdf:about="">
        <dc:format>image/svg+xml</dc:format>
        <dc:type
           rdf:resource="http://purl.org/dc/dcmitype/StillImage" />
        <dc:title></dc:title>
      </cc:Work>
    </rdf:RDF>
  </metadata>
  <g
     inkscape:label="Layer 1"
     inkscape:groupmode="layer"
     id="layer1"
     transform="translate(-62.88657,-65.965299)">
    <path
       inkscape:connector-curvature="0"
       id="path7890"
       d="m 63.082196,73.417435 a 6.9684209,6.9684209 0 0 1 -0.0062,-0.294286 6.9684209,6.9684209 0 0 1 6.96842,-6.968424 6.9684209,6.9684209 0 0 1 6.968421,6.968424 v 0 a 6.9684209,6.9684209 0 0 1 -0.0062,0.294527"
       style="fill:#ffffff;fill-opacity:1;stroke:#b4da17;stroke-width:0.37885121;stroke-miterlimit:4;stroke-dasharray:none;stroke-opacity:1" />
    <g
       id="g7803"
       style="fill:#b4da17;fill-opacity:1;stroke:#b4da17;stroke-opacity:1"
       transform="matrix(0.18328557,0,0,0.18328557,92.121606,43.962437)">
      <path
         sodipodi:nodetypes="ccccscc"
         inkscape:connector-curvature="0"
         id="path7781"
         d="m -123.15051,154.64256 c 0.93067,1.97777 -0.51376,1.96094 -1.59025,1.02898 -6.46277,-5.90494 -13.9208,-11.71036 -19.27014,-17.72665 -0.90487,-0.98203 -1.58518,-2.03315 -0.88867,-3.50791 0.84436,-3.23228 5.35442,-5.31235 7.10937,-5.28526 1.48069,0.0228 1.88682,-0.13928 2.99342,1.16931 5.10744,9.15747 7.76418,16.21435 11.64627,24.32153 z"
         style="fill:#b4da17;fill-opacity:1;stroke:#b4da17;stroke-width:0;stroke-linecap:butt;stroke-linejoin:miter;stroke-miterlimit:4;stroke-dasharray:none;stroke-opacity:1" />
      <path
         style="fill:#b4da17;fill-opacity:1;stroke:#b4da17;stroke-width:0;stroke-linecap:butt;stroke-linejoin:miter;stroke-miterlimit:4;stroke-dasharray:none;stroke-opacity:1"
         d="m -119.35217,154.46169 c -0.49306,2.15941 -2.42338,1.35512 -3.05015,-0.0115 -3.48922,-8.46285 -8.40663,-17.38715 -10.2981,-25.33376 -0.35146,-1.31445 -0.33948,-2.56371 1.90071,-3.41317 3.99117,-2.23506 11.90146,-1.50321 14.2409,-0.52046 1.97388,0.8291 2.66392,0.91607 2.99868,2.61337 -1.20794,10.43524 -3.86136,17.77698 -5.79204,26.66548 z"
         id="path7783"
         inkscape:connector-curvature="0"
         sodipodi:nodetypes="ccccscc" />
      <path
         sodipodi:nodetypes="ccccscc"
         inkscape:connector-curvature="0"
         id="path7785"
         d="m -117.28245,155.75154 c -1.45035,1.63529 -2.0046,0.30135 -1.57278,-1.0555 2.87713,-8.26787 5.27024,-17.41107 8.68887,-24.69971 0.5455,-1.21885 1.24308,-2.2586 2.873,-2.20023 3.30327,-0.49899 6.99359,2.82498 7.660882,4.44836 0.56309,1.36962 0.87221,1.67891 0.10618,3.21193 -6.400552,8.30531 -11.837422,13.53009 -17.756142,20.29513 z"
         style="fill:#b4da17;fill-opacity:1;stroke:#b4da17;stroke-width:0;stroke-linecap:butt;stroke-linejoin:miter;stroke-miterlimit:4;stroke-dasharray:none;stroke-opacity:1" />
      <path
         sodipodi:nodetypes="ccccscc"
         inkscape:connector-curvature="0"
         id="path7787"
         d="m -115.19135,159.18776 c -2.17703,0.40829 -2.20857,-1.68265 -1.20491,-2.80209 6.37148,-6.57258 12.59706,-14.63894 19.131742,-19.54038 1.06555,-0.84614 2.21609,-1.33299 3.88792,0.38276 3.64038,2.76996 6.12131,10.31669 6.15221,12.85397 0.0262,2.14078 0.22136,2.80832 -1.20196,3.79171 -10.05228,3.05045 -17.843282,3.54241 -26.764922,5.31363 z"
         style="fill:#b4da17;fill-opacity:1;stroke:#b4da17;stroke-width:0;stroke-linecap:butt;stroke-linejoin:miter;stroke-miterlimit:4;stroke-dasharray:none;stroke-opacity:1" />
      <path
         style="fill:#b4da17;fill-opacity:1;stroke:#b4da17;stroke-width:0;stroke-linecap:butt;stroke-linejoin:miter;stroke-miterlimit:4;stroke-dasharray:none;stroke-opacity:1"
         d="m -124.48924,156.84426 c 1.70765,1.36443 0.40392,1.98648 -0.97327,1.62495 -8.40477,-2.44861 -17.65883,-4.36889 -25.11346,-7.40858 -1.24526,-0.48217 -2.31947,-1.12541 -2.34491,-2.75618 -0.66803,-3.27327 2.462,-7.12947 4.04894,-7.87929 1.3389,-0.63268 1.63189,-0.95729 3.20224,-0.27106 8.62314,5.96545 14.1203,11.12676 21.18046,16.69013 z"
         id="path7789"
         inkscape:connector-curvature="0"
         sodipodi:nodetypes="ccccscc" />
      <path
         inkscape:connector-curvature="0"
         id="path7791"
         transform="matrix(0.14017229,0,0,0.14017229,-1061.5824,480.21335)"
         d="m 6489.4863,-2329.5664 c -12.2077,0.6669 -13.0325,3.6761 -19.5332,12.0039 -4.8759,6.2458 -9.689,22.3989 -8.832,38.1621 h 220.8262 c 6.5727,-3.228 8.5415,-9.1603 -3.9493,-11.791 -62.8374,-12.7914 -114.4253,-28.0373 -188.5117,-38.375 z"
         style="fill:#b4da17;fill-opacity:1;stroke:#b4da17;stroke-width:0;stroke-linecap:butt;stroke-linejoin:miter;stroke-miterlimit:4;stroke-dasharray:none;stroke-opacity:1" />
      <path
         inkscape:connector-curvature="0"
         id="path7799"
         transform="matrix(0.14017229,0,0,0.14017229,-1061.5824,480.21335)"
         d="m 6939.0645,-2305.4082 c -0.589,0.01 -1.1804,0.022 -1.7754,0.043 -57.4243,1.0104 -123.5037,14.4167 -185.4981,21.9726 -3.8989,0.5815 -7.3016,2.105 -9.1367,3.9922 h 223.5723 c -1.0033,-5.2442 -2.8574,-10.2064 -5.8184,-14.4785 -4.4516,-9.9585 -12.5092,-11.636 -21.3437,-11.5293 z"
         style="fill:#b4da17;fill-opacity:1;stroke:#b4da17;stroke-width:0;stroke-linecap:butt;stroke-linejoin:miter;stroke-miterlimit:4;stroke-dasharray:none;stroke-opacity:1" />
    </g>
  </g>
</svg>
