<?xml version="1.0" encoding="UTF-8" standalone="no"?>
<!-- Created with Inkscape (http://www.inkscape.org/) -->

<svg
   xmlns:dc="http://purl.org/dc/elements/1.1/"
   xmlns:cc="http://creativecommons.org/ns#"
   xmlns:rdf="http://www.w3.org/1999/02/22-rdf-syntax-ns#"
   xmlns:svg="http://www.w3.org/2000/svg"
   xmlns="http://www.w3.org/2000/svg"
   xmlns:sodipodi="http://sodipodi.sourceforge.net/DTD/sodipodi-0.dtd"
   xmlns:inkscape="http://www.inkscape.org/namespaces/inkscape"
   width="18.737587mm"
   height="4.9123569mm"
   viewBox="0 0 18.737587 4.9123569"
   version="1.1"
   id="svg2252"
   inkscape:version="0.92.5 (2060ec1f9f, 2020-04-08)"
   sodipodi:docname="logo_text_light.svg">
  <defs
     id="defs2246" />
  <sodipodi:namedview
     id="base"
     pagecolor="#ffffff"
     bordercolor="#666666"
     borderopacity="1.0"
     inkscape:pageopacity="0.0"
     inkscape:pageshadow="2"
     inkscape:zoom="3.959798"
     inkscape:cx="118.98273"
     inkscape:cy="15.14064"
     inkscape:document-units="mm"
     inkscape:current-layer="layer1"
     showgrid="false"
     fit-margin-top="0"
     fit-margin-left="0"
     fit-margin-right="0"
     fit-margin-bottom="0"
     inkscape:window-width="1920"
     inkscape:window-height="1016"
     inkscape:window-x="0"
     inkscape:window-y="27"
     inkscape:window-maximized="1" />
  <metadata
     id="metadata2249">
    <rdf:RDF>
      <cc:Work
         rdf:about="">
        <dc:format>image/svg+xml</dc:format>
        <dc:type
           rdf:resource="http://purl.org/dc/dcmitype/StillImage" />
        <dc:title></dc:title>
      </cc:Work>
    </rdf:RDF>
  </metadata>
  <g
     inkscape:label="Layer 1"
     inkscape:groupmode="layer"
     id="layer1"
     transform="translate(202.89261,-23.91287)">
    <g
       id="g7998"
       style="fill:#1a1a1a"
       transform="matrix(0.55561431,0,0,0.55561431,-273.1725,-84.086051)">
      <g
         id="text7972"
         style="font-style:normal;font-weight:normal;font-size:8.57228851px;line-height:1.25;font-family:sans-serif;letter-spacing:0px;word-spacing:0px;fill:#1a1a1a;fill-opacity:1;stroke:none;stroke-width:0.2143072"
         aria-label="ZiTRUS">
        <path
           inkscape:connector-curvature="0"
           id="path8101"
           style="font-style:normal;font-variant:normal;font-weight:bold;font-stretch:normal;font-family:sans-serif;-inkscape-font-specification:'sans-serif Bold';fill:#ffffff;stroke-width:0.2143072"
           d="m 126.5867,194.64119 h 5.25304 v 0.97527 l -3.35274,4.05593 h 3.44901 v 1.21804 h -5.44558 v -0.97527 l 3.35274,-4.05593 h -3.25647 z" />
        <path
           inkscape:connector-curvature="0"
           id="path8103"
           style="font-style:normal;font-variant:normal;font-weight:bold;font-stretch:normal;font-family:sans-serif;-inkscape-font-specification:'sans-serif Bold';fill:#b4da17;fill-opacity:1;stroke-width:0.2143072"
           d="m 133.04103,196.20246 h 1.49848 v 4.68797 h -1.49848 z m 0,-1.82496 h 1.49848 v 1.22222 h -1.49848 z" />
        <path
           inkscape:connector-curvature="0"
           id="path8105"
           style="font-style:normal;font-variant:normal;font-weight:bold;font-stretch:normal;font-family:sans-serif;-inkscape-font-specification:'sans-serif Bold';fill:#b4da17;fill-opacity:1;stroke-width:0.2143072"
           d="m 135.3013,194.64119 h 5.75951 v 1.21804 h -2.07192 v 5.0312 h -1.61149 v -5.0312 h -2.0761 z" />
        <path
           inkscape:connector-curvature="0"
           id="path8107"
           style="font-style:normal;font-variant:normal;font-weight:bold;font-stretch:normal;font-family:sans-serif;-inkscape-font-specification:'sans-serif Bold';fill:#ffffff;stroke-width:0.2143072"
           d="m 144.18333,197.41212 q 0.50647,0 0.72413,-0.18836 0.22184,-0.18835 0.22184,-0.61948 0,-0.42694 -0.22184,-0.61111 -0.21766,-0.18417 -0.72413,-0.18417 h -0.67808 v 1.60312 z m -0.67808,1.11339 v 2.36492 h -1.61149 v -6.24924 h 2.46119 q 1.23477,0 1.80821,0.41439 0.57763,0.41438 0.57763,1.31012 0,0.61948 -0.30137,1.01712 -0.29719,0.39764 -0.89993,0.586 0.33067,0.0753 0.59019,0.34322 0.2637,0.2637 0.53158,0.80366 l 0.87481,1.77473 h -1.71613 l -0.7618,-1.55289 q -0.23021,-0.4688 -0.4688,-0.64041 -0.23439,-0.17162 -0.62785,-0.17162 z" />
        <path
           inkscape:connector-curvature="0"
           id="path8109"
           style="font-style:normal;font-variant:normal;font-weight:bold;font-stretch:normal;font-family:sans-serif;-inkscape-font-specification:'sans-serif Bold';fill:#ffffff;stroke-width:0.2143072"
           d="m 148.49459,194.64119 h 1.61149 v 3.7462 q 0,0.77435 0.25114,1.1092 0.25533,0.33067 0.82877,0.33067 0.57762,0 0.82876,-0.33067 0.25533,-0.33485 0.25533,-1.1092 v -3.7462 h 1.61149 v 3.7462 q 0,1.32686 -0.66552,1.97564 -0.66553,0.64878 -2.03006,0.64878 -1.36035,0 -2.02587,-0.64878 -0.66553,-0.64878 -0.66553,-1.97564 z" />
        <path
           inkscape:connector-curvature="0"
           id="path8111"
           style="font-style:normal;font-variant:normal;font-weight:bold;font-stretch:normal;font-family:sans-serif;-inkscape-font-specification:'sans-serif Bold';fill:#ffffff;stroke-width:0.2143072"
           d="m 159.80432,194.83792 v 1.32268 q -0.51484,-0.23021 -1.00457,-0.34741 -0.48972,-0.1172 -0.92503,-0.1172 -0.57763,0 -0.85388,0.15905 -0.27626,0.15906 -0.27626,0.49392 0,0.25114 0.18417,0.39345 0.18836,0.13813 0.67808,0.23858 l 0.68646,0.13813 q 1.04223,0.20929 1.48173,0.63623 0.4395,0.42694 0.4395,1.21385 0,1.03386 -0.6153,1.54033 -0.61111,0.50228 -1.871,0.50228 -0.59437,0 -1.19292,-0.11301 -0.59856,-0.11302 -1.19711,-0.33486 v -1.36035 q 0.59855,0.31812 1.15525,0.48136 0.56088,0.15905 1.07991,0.15905 0.52739,0 0.80783,-0.17579 0.28045,-0.1758 0.28045,-0.50229 0,-0.29299 -0.19255,-0.45205 -0.18835,-0.15906 -0.75761,-0.28463 l -0.62366,-0.13813 q -0.9376,-0.20091 -1.37291,-0.64041 -0.43112,-0.43949 -0.43112,-1.18455 0,-0.9334 0.60274,-1.43569 0.60273,-0.50228 1.73287,-0.50228 0.51484,0 1.05898,0.0795 0.54414,0.0753 1.12595,0.23021 z" />
      </g>
      <g
         transform="matrix(0.57554826,0,0,0.57554826,178.69514,136.02341)"
         id="g7996"
         style="font-style:normal;font-weight:normal;font-size:3.21218729px;line-height:1.25;font-family:sans-serif;letter-spacing:0px;word-spacing:0px;fill:#ffffff;fill-opacity:1;stroke:none;stroke-width:0.02124728"
         aria-label="IT SOLUTIONS">
        <path
           inkscape:connector-curvature="0"
           id="path7974"
           style="font-style:normal;font-variant:normal;font-weight:bold;font-stretch:normal;font-family:sans-serif;-inkscape-font-specification:'sans-serif Bold';letter-spacing:1.53458321px;fill:#ffffff;fill-opacity:1;stroke-width:0.02124728"
           d="m -81.481887,116.70162 h -1.367689 v -0.41407 h 0.382702 v -1.50728 h -0.382702 v -0.41407 h 1.367689 v 0.41407 h -0.382702 v 1.50728 h 0.382702 z" />
        <path
           inkscape:connector-curvature="0"
           id="path7976"
           style="font-style:normal;font-variant:normal;font-weight:bold;font-stretch:normal;font-family:sans-serif;-inkscape-font-specification:'sans-serif Bold';letter-spacing:1.53458321px;fill:#ffffff;fill-opacity:1;stroke-width:0.02124728"
           d="m -77.625997,114.81791 h -0.729329 v 1.88371 h -0.602286 v -1.88371 h -0.729329 v -0.45171 h 2.060944 z" />
        <path
           inkscape:connector-curvature="0"
           id="path7978"
           style="font-style:normal;font-variant:normal;font-weight:bold;font-stretch:normal;font-family:sans-serif;-inkscape-font-specification:'sans-serif Bold';letter-spacing:1.53458321px;fill:#ffffff;fill-opacity:1;stroke-width:0.02124728"
           d="m -71.227009,115.96759 q 0,0.34506 -0.293301,0.5615 -0.291732,0.21488 -0.793636,0.21488 -0.290163,0 -0.506609,-0.0502 -0.214878,-0.0518 -0.403092,-0.13018 v -0.55994 h 0.06588 q 0.186645,0.149 0.417207,0.229 0.232131,0.08 0.445441,0.08 0.0549,0 0.144297,-0.009 0.0894,-0.009 0.145866,-0.0314 0.06901,-0.0282 0.112928,-0.0706 0.04548,-0.0423 0.04548,-0.12548 0,-0.0769 -0.06587,-0.13175 -0.06431,-0.0565 -0.189783,-0.0863 -0.13175,-0.0314 -0.279184,-0.058 -0.145866,-0.0282 -0.274479,-0.0706 -0.294869,-0.0957 -0.42505,-0.25879 -0.128613,-0.16469 -0.128613,-0.4078 0,-0.32624 0.291732,-0.5317 0.2933,-0.20704 0.752856,-0.20704 0.230562,0 0.454851,0.0455 0.225857,0.0439 0.390544,0.11136 v 0.53797 h -0.06431 q -0.14116,-0.11292 -0.346627,-0.18821 -0.203899,-0.0769 -0.417208,-0.0769 -0.07529,0 -0.150571,0.011 -0.07372,0.009 -0.142729,0.0376 -0.06117,0.0235 -0.105087,0.0722 -0.04392,0.047 -0.04392,0.10822 0,0.0925 0.07058,0.14273 0.07058,0.0486 0.266637,0.0894 0.128613,0.0267 0.246246,0.0518 0.119203,0.0251 0.255658,0.069 0.268205,0.0878 0.39525,0.23997 0.128613,0.15058 0.128613,0.39212 z" />
        <path
           inkscape:connector-curvature="0"
           id="path7980"
           style="font-style:normal;font-variant:normal;font-weight:bold;font-stretch:normal;font-family:sans-serif;-inkscape-font-specification:'sans-serif Bold';letter-spacing:1.53458321px;fill:#ffffff;fill-opacity:1;stroke-width:0.02124728"
           d="m -67.007238,115.53469 q 0,0.55837 -0.319964,0.88775 -0.319964,0.3278 -0.884606,0.3278 -0.563074,0 -0.883038,-0.3278 -0.319964,-0.32938 -0.319964,-0.88775 0,-0.56307 0.319964,-0.88931 0.319964,-0.3278 0.883038,-0.3278 0.561505,0 0.883037,0.3278 0.321533,0.32624 0.321533,0.88931 z m -0.798342,0.59131 q 0.08783,-0.10665 0.130182,-0.25095 0.04235,-0.14587 0.04235,-0.34192 0,-0.21018 -0.04862,-0.35761 -0.04862,-0.14744 -0.127045,-0.23841 -0.07999,-0.0941 -0.185077,-0.13645 -0.103518,-0.0423 -0.216446,-0.0423 -0.114497,0 -0.216446,0.0408 -0.100381,0.0408 -0.185077,0.13489 -0.07842,0.0878 -0.128613,0.24311 -0.04862,0.15371 -0.04862,0.3576 0,0.20861 0.04705,0.35604 0.04862,0.14587 0.127045,0.23841 0.07842,0.0925 0.183508,0.13645 0.105087,0.0439 0.221152,0.0439 0.116065,0 0.221152,-0.0439 0.105086,-0.0455 0.183508,-0.13959 z" />
        <path
           inkscape:connector-curvature="0"
           id="path7982"
           style="font-style:normal;font-variant:normal;font-weight:bold;font-stretch:normal;font-family:sans-serif;-inkscape-font-specification:'sans-serif Bold';letter-spacing:1.53458321px;fill:#ffffff;fill-opacity:1;stroke-width:0.02124728"
           d="m -63.330152,116.70162 h -1.684516 v -2.33542 h 0.602285 v 1.88371 h 1.082231 z" />
        <path
           inkscape:connector-curvature="0"
           id="path7984"
           style="font-style:normal;font-variant:normal;font-weight:bold;font-stretch:normal;font-family:sans-serif;-inkscape-font-specification:'sans-serif Bold';letter-spacing:1.53458321px;fill:#ffffff;fill-opacity:1;stroke-width:0.02124728"
           d="m -59.389565,115.85623 q 0,0.43289 -0.263499,0.66345 -0.2635,0.23056 -0.776383,0.23056 -0.512884,0 -0.776384,-0.23056 -0.261931,-0.23056 -0.261931,-0.66188 v -1.4916 h 0.605422 v 1.45709 q 0,0.24311 0.101949,0.36231 0.10195,0.1192 0.330944,0.1192 0.225857,0 0.329374,-0.11449 0.105086,-0.1145 0.105086,-0.36702 v -1.45709 h 0.605422 z" />
        <path
           inkscape:connector-curvature="0"
           id="path7986"
           style="font-style:normal;font-variant:normal;font-weight:bold;font-stretch:normal;font-family:sans-serif;-inkscape-font-specification:'sans-serif Bold';letter-spacing:1.53458321px;fill:#ffffff;fill-opacity:1;stroke-width:0.02124728"
           d="m -55.463094,114.81791 h -0.729329 v 1.88371 h -0.602285 v -1.88371 h -0.72933 v -0.45171 h 2.060944 z" />
        <path
           inkscape:connector-curvature="0"
           id="path7988"
           style="font-style:normal;font-variant:normal;font-weight:bold;font-stretch:normal;font-family:sans-serif;-inkscape-font-specification:'sans-serif Bold';letter-spacing:1.53458321px;fill:#ffffff;fill-opacity:1;stroke-width:0.02124728"
           d="m -52.303596,116.70162 h -1.367689 v -0.41407 h 0.382702 v -1.50728 h -0.382702 v -0.41407 h 1.367689 v 0.41407 h -0.382702 v 1.50728 h 0.382702 z" />
        <path
           inkscape:connector-curvature="0"
           id="path7990"
           style="font-style:normal;font-variant:normal;font-weight:bold;font-stretch:normal;font-family:sans-serif;-inkscape-font-specification:'sans-serif Bold';letter-spacing:1.53458321px;fill:#ffffff;fill-opacity:1;stroke-width:0.02124728"
           d="m -48.003834,115.53469 q 0,0.55837 -0.319964,0.88775 -0.319964,0.3278 -0.884606,0.3278 -0.563074,0 -0.883038,-0.3278 -0.319964,-0.32938 -0.319964,-0.88775 0,-0.56307 0.319964,-0.88931 0.319964,-0.3278 0.883038,-0.3278 0.561506,0 0.883038,0.3278 0.321532,0.32624 0.321532,0.88931 z m -0.798341,0.59131 q 0.08783,-0.10665 0.130181,-0.25095 0.04235,-0.14587 0.04235,-0.34192 0,-0.21018 -0.04862,-0.35761 -0.04862,-0.14744 -0.127045,-0.23841 -0.07999,-0.0941 -0.185077,-0.13645 -0.103518,-0.0423 -0.216446,-0.0423 -0.114497,0 -0.216447,0.0408 -0.10038,0.0408 -0.185077,0.13489 -0.07842,0.0878 -0.128613,0.24311 -0.04862,0.15371 -0.04862,0.3576 0,0.20861 0.04705,0.35604 0.04862,0.14587 0.127044,0.23841 0.07842,0.0925 0.183509,0.13645 0.105086,0.0439 0.221152,0.0439 0.116065,0 0.221151,-0.0439 0.105086,-0.0455 0.183509,-0.13959 z" />
        <path
           inkscape:connector-curvature="0"
           id="path7992"
           style="font-style:normal;font-variant:normal;font-weight:bold;font-stretch:normal;font-family:sans-serif;-inkscape-font-specification:'sans-serif Bold';letter-spacing:1.53458321px;fill:#ffffff;fill-opacity:1;stroke-width:0.02124728"
           d="m -43.887581,116.70162 h -0.580327 l -0.991261,-1.60295 v 1.60295 h -0.552094 v -2.33542 h 0.719919 l 0.851668,1.33789 v -1.33789 h 0.552095 z" />
        <path
           inkscape:connector-curvature="0"
           id="path7994"
           style="font-style:normal;font-variant:normal;font-weight:bold;font-stretch:normal;font-family:sans-serif;-inkscape-font-specification:'sans-serif Bold';letter-spacing:1.53458321px;fill:#ffffff;fill-opacity:1;stroke-width:0.02124728"
           d="m -39.884254,115.96759 q 0,0.34506 -0.2933,0.5615 -0.291732,0.21488 -0.793637,0.21488 -0.290163,0 -0.506609,-0.0502 -0.214878,-0.0518 -0.403092,-0.13018 v -0.55994 h 0.06588 q 0.186646,0.149 0.417208,0.229 0.232131,0.08 0.44544,0.08 0.0549,0 0.144297,-0.009 0.0894,-0.009 0.145866,-0.0314 0.06901,-0.0282 0.112929,-0.0706 0.04548,-0.0423 0.04548,-0.12548 0,-0.0769 -0.06588,-0.13175 -0.06431,-0.0565 -0.189783,-0.0863 -0.13175,-0.0314 -0.279184,-0.058 -0.145866,-0.0282 -0.274479,-0.0706 -0.294869,-0.0957 -0.42505,-0.25879 -0.128613,-0.16469 -0.128613,-0.4078 0,-0.32624 0.291732,-0.5317 0.2933,-0.20704 0.752856,-0.20704 0.230563,0 0.454851,0.0455 0.225857,0.0439 0.390544,0.11136 v 0.53797 h -0.06431 q -0.141161,-0.11292 -0.346628,-0.18821 -0.203898,-0.0769 -0.417208,-0.0769 -0.07529,0 -0.150571,0.011 -0.07372,0.009 -0.142729,0.0376 -0.06117,0.0235 -0.105086,0.0722 -0.04392,0.047 -0.04392,0.10822 0,0.0925 0.07058,0.14273 0.07058,0.0486 0.266637,0.0894 0.128613,0.0267 0.246247,0.0518 0.119202,0.0251 0.255657,0.069 0.268205,0.0878 0.39525,0.23997 0.128613,0.15058 0.128613,0.39212 z" />
      </g>
    </g>
  </g>
</svg>
